<svg width="14" height="14" viewBox="0 0 14 14" fill="none" xmlns="http://www.w3.org/2000/svg">
<path d="M6.99417 1.16675C3.77417 1.16675 1.16667 3.78008 1.16667 7.00008C1.16667 10.2201 3.77417 12.8334 6.99417 12.8334C10.22 12.8334 12.8333 10.2201 12.8333 7.00008C12.8333 3.78008 10.22 1.16675 6.99417 1.16675ZM7 11.6667C4.42167 11.6667 2.33333 9.57841 2.33333 7.00008C2.33333 4.42175 4.42167 2.33341 7 2.33341C9.57833 2.33341 11.6667 4.42175 11.6667 7.00008C11.6667 9.57841 9.57833 11.6667 7 11.6667ZM7.29167 4.08342H6.41667V7.58342L9.47917 9.42091L9.91667 8.70342L7.29167 7.14592V4.08342Z" fill="white"/>
</svg>
