<svg width="226" height="79" viewBox="0 0 226 79" fill="none" xmlns="http://www.w3.org/2000/svg">
    <path d="M33.2538 14.8224L25.6889 19.2375L12.2928 27.1218V35.9521L25.6889 28.2256V63.0739L33.2538 58.6587V23.8103V14.8224Z"
          fill="white"/>
    <path d="M52.4812 39.7366L43.0251 34.2176V28.2256L56.4212 35.9521V27.1218L43.0251 19.2375L35.4603 14.8224V23.8103V29.8024V37.2135V58.6587L43.0251 63.0739V41.471L52.4812 46.99V39.7366Z"
          fill="white"/>
    <path d="M63.3556 39.4211V55.978L34.357 72.6926L5.35843 55.978V39.4211L0 42.5748V59.1317L34.357 79L68.7141 59.1317V42.5748L63.3556 39.4211Z"
          fill="white"/>
    <path d="M35.4603 0V6.14974L63.3556 22.2335V32.1677L68.7141 35.3214V19.2376L35.4603 0Z" fill="white"/>
    <path d="M0 19.2376V35.3214L5.35843 32.1677V22.2335L33.2538 6.14974V0L0 19.2376Z" fill="white"/>
    <path d="M94.5607 30.5909V35.3215H88.8871V50.7746H83.5286V35.3215H77.855V30.5909H94.5607Z" fill="white"/>
    <path d="M106.223 30.1178C113.473 30.1178 117.098 35.006 117.098 40.6827C117.098 46.3593 113.473 51.2476 106.223 51.2476C98.9735 51.2476 95.3487 46.3593 95.3487 40.6827C95.5063 35.006 99.1311 30.1178 106.223 30.1178ZM106.223 35.0061C102.756 35.0061 100.865 37.3713 100.865 40.6827C100.865 43.8364 102.756 46.3594 106.223 46.3594C109.69 46.3594 111.582 43.9941 111.582 40.6827C111.582 37.529 109.848 35.0061 106.223 35.0061Z"
          fill="white"/>
    <path d="M134.749 30.5909V35.3215H129.075V50.7746H123.717V35.3215H118.043V30.5909H134.749Z" fill="white"/>
    <path d="M133.015 50.7746L140.895 30.5909H146.727L154.607 50.7746H149.091L147.987 47.6209H139.635L138.531 50.7746H133.015ZM141.211 43.3634H146.411L144.363 37.529C144.205 37.056 144.047 36.5829 143.89 35.4791C143.732 36.5829 143.575 37.056 143.417 37.529L141.211 43.3634Z"
          fill="white"/>
    <path d="M162.172 30.5909V46.044H171.47V50.7746H156.971V30.5909H162.172Z" fill="white"/>
    <path d="M188.649 30.5909V35.3215H179.35V38.7905H187.703V43.521H179.35V50.7746H173.992V30.5909H188.649Z"
          fill="white"/>
    <path d="M197.001 30.5909V50.7746H191.643V30.5909H197.001Z" fill="white"/>
    <path d="M216.386 30.5909V35.3215H210.713V50.7746H205.354V35.3215H199.681V30.5909H216.386Z" fill="white"/>
    <path d="M222.375 32.483C220.642 32.483 218.75 31.3793 218.75 29.014C218.75 26.6487 220.642 25.5449 222.375 25.5449C224.109 25.5449 226 26.6487 226 29.014C226 31.2216 224.109 32.483 222.375 32.483ZM222.375 32.1677C223.951 32.1677 225.685 31.0639 225.685 29.014C225.685 26.8064 223.951 25.8603 222.375 25.8603C220.799 25.8603 219.066 26.9641 219.066 29.014C219.066 31.2216 220.799 32.1677 222.375 32.1677ZM221.114 30.9061V27.1218H222.69C223.321 27.1218 224.109 27.2795 224.109 28.2256C224.109 28.8563 223.636 29.1716 223.321 29.3293L224.424 30.9061H223.951L223.006 29.487H222.848H221.745V30.9061H221.114ZM221.43 29.014H222.533C222.848 29.014 223.636 29.014 223.636 28.2256C223.636 27.4372 223.006 27.4372 222.533 27.4372H221.43V29.014Z"
          fill="white"/>
</svg>
