<svg width="12" height="36" viewBox="0 0 12 36" fill="none" xmlns="http://www.w3.org/2000/svg">
<path d="M6.35355 0.646446C6.15829 0.451184 5.84171 0.451184 5.64645 0.646446L2.46447 3.82843C2.2692 4.02369 2.2692 4.34027 2.46447 4.53553C2.65973 4.7308 2.97631 4.7308 3.17157 4.53553L6 1.70711L8.82843 4.53553C9.02369 4.7308 9.34027 4.7308 9.53553 4.53553C9.7308 4.34027 9.7308 4.02369 9.53553 3.82843L6.35355 0.646446ZM6.5 9L6.5 1L5.5 1L5.5 9L6.5 9Z" fill="white"/>
<path d="M4.64645 35.3536C4.84171 35.5488 5.15829 35.5488 5.35355 35.3536L8.53553 32.1716C8.7308 31.9763 8.7308 31.6597 8.53553 31.4645C8.34027 31.2692 8.02369 31.2692 7.82843 31.4645L5 34.2929L2.17157 31.4645C1.97631 31.2692 1.65973 31.2692 1.46447 31.4645C1.2692 31.6597 1.2692 31.9763 1.46447 32.1716L4.64645 35.3536ZM4.5 27L4.5 35L5.5 35L5.5 27L4.5 27Z" fill="white"/>
<circle cx="2" cy="10" r="2" fill="#C4C4C4"/>
<circle cx="2" cy="18" r="2" fill="#C4C4C4"/>
<circle cx="2" cy="26" r="2" fill="#C4C4C4"/>
<circle cx="10" cy="10" r="2" fill="#C4C4C4"/>
<circle cx="10" cy="18" r="2" fill="#C4C4C4"/>
<circle cx="10" cy="26" r="2" fill="#C4C4C4"/>
</svg>
